<svg width="124" height="23" viewBox="0 0 124 23" fill="none" xmlns="http://www.w3.org/2000/svg">
<g id="Frame" clip-path="url(#clip0_3_78)">
<g id="Group">
<g id="Group_2">
<path id="Vector" d="M0.398566 2.95574C-0.232393 2.16981 -0.0995595 1.02966 0.675302 0.398697C1.46123 -0.232262 2.60139 -0.110498 3.23235 0.675433C3.24342 0.686503 3.25448 0.708642 3.26555 0.719711L8.42392 7.3171C8.4682 7.37245 8.51248 7.41673 8.54568 7.47208C7.26163 7.6824 6.17682 8.52368 5.66763 9.71918C5.63442 9.66383 5.60121 9.60848 5.55693 9.55313L0.398566 2.95574Z" fill="#282828"/>
<path id="Vector_2" d="M18.0543 19.6483C18.6852 20.4342 18.5635 21.5744 17.7886 22.2053C17.0027 22.8363 15.8625 22.7145 15.2316 21.9397C15.2205 21.9286 15.2094 21.9064 15.1984 21.8954L10.04 15.298C9.95144 15.1873 9.85181 15.0877 9.74112 14.9991C11.0584 14.7999 12.1653 13.9254 12.6856 12.7077C12.7409 12.8295 12.8184 12.9513 12.8959 13.0509L18.0543 19.6483Z" fill="#282828"/>
<path id="Vector_3" d="M8.67846 15.0212C8.57883 15.0987 8.50135 15.1873 8.42386 15.2869L3.2655 21.8843C2.64561 22.6813 1.50545 22.8141 0.708452 22.1943C-0.0885481 21.5744 -0.221382 20.4342 0.398508 19.6372L5.55687 13.0398C5.61222 12.9734 5.6565 12.907 5.68971 12.8295C6.24318 14.0361 7.38333 14.8552 8.67846 15.0212Z" fill="#282828"/>
<path id="Vector_4" d="M9.87395 7.50509C9.92929 7.44975 9.98464 7.38333 10.04 7.32798L15.1984 0.730587C15.8182 -0.0553439 16.9584 -0.199247 17.7443 0.420643C18.5303 1.04053 18.6742 2.18069 18.0543 2.96662L12.8959 9.56401C12.8184 9.66364 12.752 9.76326 12.7077 9.87395C12.2317 8.64525 11.158 7.74862 9.87395 7.50509Z" fill="#282828"/>
<path id="Vector_5" d="M11.6229 11.3019C11.6229 12.6302 10.5492 13.704 9.23192 13.704C7.91466 13.704 6.82985 12.6302 6.82985 11.313C6.82985 9.98464 7.90359 8.9109 9.22085 8.9109C10.5492 8.9109 11.6229 9.97357 11.6229 11.3019Z" fill="#FF8500"/>
</g>
<g id="Group_3">
<path id="Vector_6" d="M39.7725 18.9066L37.8797 14.7224H29.0684L27.1644 18.9066H26.0132L32.9648 3.86324H34.0275L40.9791 18.9066H39.7725ZM33.4851 5.08088L29.5333 13.7261H37.4037L33.4851 5.08088Z" fill="#282828"/>
<path id="Vector_7" d="M50.7092 18.5413C50.0007 18.9509 49.1594 19.1612 48.1632 19.1612C47.3773 19.1612 46.6467 19.0063 45.9714 18.7074C45.2962 18.3974 44.7095 17.9879 44.2114 17.4787C43.7133 16.9695 43.3258 16.3717 43.0491 15.6854C42.7724 14.9991 42.6285 14.2796 42.6285 13.5047V13.4605C42.6285 12.6967 42.7724 11.9661 43.0491 11.2798C43.3258 10.5935 43.7133 9.99572 44.2114 9.46439C44.7095 8.93305 45.2962 8.52348 45.9714 8.21354C46.6467 7.90359 47.3773 7.75969 48.1632 7.75969C48.6724 7.75969 49.1373 7.81504 49.5579 7.92573C49.9786 8.03643 50.366 8.18033 50.7202 8.36851C51.0745 8.55669 51.3955 8.77808 51.6943 9.01054C51.9822 9.25407 52.2589 9.50866 52.5135 9.77433L51.7718 10.5381C51.3069 10.0511 50.7866 9.63043 50.211 9.2762C49.6465 8.92198 48.9491 8.74487 48.141 8.74487C47.5101 8.74487 46.9345 8.86664 46.4031 9.11016C45.8718 9.35369 45.4069 9.68577 45.0195 10.0953C44.632 10.516 44.3221 11.003 44.0896 11.5676C43.8572 12.1321 43.7465 12.7409 43.7465 13.394V13.4383C43.7465 14.0914 43.8682 14.7002 44.1007 15.2758C44.3332 15.8515 44.6542 16.3496 45.0637 16.7702C45.4733 17.1909 45.9382 17.5229 46.4806 17.7665C47.023 18.01 47.6097 18.1318 48.2296 18.1318C48.9934 18.1318 49.6797 17.9547 50.2885 17.6115C50.8973 17.2683 51.4176 16.8366 51.8825 16.3164L52.6131 16.9584C52.0486 17.6115 51.4176 18.1318 50.7092 18.5413Z" fill="#282828"/>
<path id="Vector_8" d="M63.0405 18.9066V17.0912C62.8524 17.3458 62.631 17.6004 62.3653 17.844C62.0996 18.0875 61.8008 18.3089 61.4576 18.5081C61.1145 18.7074 60.727 18.8623 60.2953 18.973C59.8636 19.0948 59.3876 19.1501 58.8784 19.1501C58.3692 19.1501 57.86 19.0837 57.3619 18.9398C56.8638 18.7959 56.421 18.5856 56.0225 18.2978C55.624 18.01 55.303 17.6558 55.0484 17.2351C54.8049 16.8034 54.672 16.3053 54.672 15.7408V15.6965C54.672 15.1319 54.7938 14.6227 55.0263 14.18C55.2587 13.7372 55.5797 13.3719 56.0004 13.073C56.4099 12.7741 56.9081 12.5417 57.4947 12.3867C58.0814 12.2317 58.7235 12.1543 59.4319 12.1543C60.1957 12.1543 60.8599 12.1985 61.4133 12.2871C61.9668 12.3756 62.5092 12.4863 63.0405 12.6302V12.1653C63.0405 11.0584 62.7195 10.2392 62.0886 9.68576C61.4576 9.13229 60.572 8.85556 59.454 8.85556C58.7899 8.85556 58.17 8.93304 57.6165 9.09908C57.063 9.26513 56.5317 9.47545 56.0336 9.73004L55.6461 8.81128C56.2439 8.52347 56.8527 8.29101 57.4615 8.1139C58.0703 7.93679 58.7567 7.84824 59.5094 7.84824C60.9152 7.84824 62.0221 8.20246 62.8413 8.9109C63.6494 9.61935 64.0589 10.6931 64.0589 12.11V18.8955H63.0405V18.9066ZM63.0516 13.5933C62.5978 13.4826 62.0664 13.3719 61.4465 13.2612C60.8377 13.1505 60.1403 13.1062 59.3544 13.1062C58.2032 13.1062 57.3176 13.3387 56.6977 13.7925C56.0779 14.2574 55.7679 14.8663 55.7679 15.6301V15.6743C55.7679 16.0728 55.8565 16.4271 56.0225 16.7259C56.1885 17.0359 56.421 17.2905 56.7199 17.5008C57.0077 17.7111 57.3508 17.8772 57.7383 17.9879C58.1257 18.0985 58.5242 18.1539 58.9338 18.1539C59.4872 18.1539 60.0186 18.0764 60.5167 17.9104C61.0148 17.7443 61.4465 17.5229 61.834 17.2351C62.2103 16.9473 62.5092 16.5931 62.7306 16.1835C62.952 15.774 63.0627 15.3201 63.0627 14.822V13.5933H63.0516Z" fill="#282828"/>
<path id="Vector_9" d="M76.8884 18.9066V16.4713C76.6449 16.8256 76.3792 17.1687 76.0914 17.5008C75.8036 17.8329 75.4715 18.1096 75.1062 18.3532C74.7409 18.5967 74.3424 18.7959 73.8886 18.9398C73.4458 19.0837 72.9477 19.1612 72.4053 19.1612C71.7522 19.1612 71.1102 19.0284 70.4792 18.7738C69.8482 18.5192 69.2837 18.1428 68.7856 17.6669C68.2875 17.1798 67.8889 16.5931 67.579 15.8847C67.2691 15.1762 67.1252 14.3903 67.1252 13.5047V13.4605C67.1252 12.5749 67.2801 11.789 67.579 11.0805C67.8889 10.3721 68.2875 9.77433 68.7856 9.28728C69.2837 8.80022 69.8482 8.42386 70.4792 8.15819C71.1102 7.89252 71.7522 7.75969 72.4053 7.75969C72.9477 7.75969 73.4458 7.82611 73.8997 7.97001C74.3535 8.11391 74.7631 8.30209 75.1284 8.54562C75.4937 8.78915 75.8147 9.06589 76.1136 9.37583C76.4014 9.68577 76.667 10.0179 76.8884 10.361V3.33191H77.9289V18.9066H76.8884ZM76.9438 13.4494C76.9438 12.752 76.822 12.1211 76.5674 11.5344C76.3128 10.9477 75.9918 10.4717 75.5712 10.0621C75.1616 9.65257 74.6856 9.34262 74.1432 9.11016C73.6119 8.87771 73.0584 8.76701 72.4828 8.76701C71.885 8.76701 71.3205 8.87771 70.8002 9.08802C70.2799 9.29834 69.8261 9.60829 69.4387 10.0068C69.0512 10.4053 68.7524 10.8923 68.531 11.468C68.3096 12.0436 68.1989 12.6967 68.1989 13.4162V13.4605C68.1989 14.1689 68.3096 14.822 68.542 15.3976C68.7745 15.9843 69.0844 16.4713 69.4719 16.8809C69.8593 17.2905 70.3242 17.6004 70.8445 17.8218C71.3648 18.0432 71.9072 18.1539 72.4828 18.1539C73.0584 18.1539 73.6008 18.0432 74.1432 17.8108C74.6745 17.5783 75.1505 17.2683 75.5712 16.8477C75.9807 16.4381 76.3128 15.94 76.5674 15.3755C76.822 14.8109 76.9438 14.1689 76.9438 13.4715V13.4494Z" fill="#282828"/>
<path id="Vector_10" d="M82.7109 15.6965C82.9655 16.2167 83.2866 16.6706 83.674 17.0359C84.0614 17.4012 84.4931 17.689 84.9913 17.8772C85.4783 18.0653 85.9986 18.165 86.541 18.165C87.3933 18.165 88.1239 17.9989 88.7106 17.6779C89.2973 17.3458 89.8286 16.9473 90.2824 16.4603L91.013 17.1023C90.4596 17.7001 89.8286 18.1982 89.1202 18.5856C88.4117 18.973 87.5372 19.1723 86.4967 19.1723C85.7883 19.1723 85.102 19.0395 84.4489 18.7627C83.7958 18.4971 83.2312 18.1096 82.7331 17.6115C82.246 17.1134 81.8475 16.5156 81.5708 15.8182C81.283 15.1209 81.1391 14.346 81.1391 13.4937V13.4494C81.1391 12.6635 81.2719 11.9329 81.5376 11.2355C81.8032 10.5492 82.1685 9.94036 82.6224 9.43117C83.0873 8.92198 83.6297 8.51241 84.2496 8.21353C84.8806 7.91465 85.5558 7.77075 86.2974 7.77075C87.0612 7.77075 87.7586 7.91465 88.3674 8.21353C88.9763 8.50134 89.4965 8.91091 89.9393 9.4201C90.371 9.9293 90.7031 10.5381 90.9466 11.2244C91.1791 11.9107 91.3008 12.6635 91.3008 13.4715V13.5158C91.3008 13.5822 91.3008 13.6486 91.3008 13.704C91.3008 13.7483 91.2898 13.8147 91.2787 13.8922H82.2571C82.3014 14.5785 82.4563 15.1762 82.7109 15.6965ZM90.205 12.9513C90.1607 12.3978 90.05 11.8664 89.8729 11.3573C89.6958 10.8481 89.4412 10.4053 89.1202 10.0179C88.7991 9.63042 88.4006 9.30941 87.9357 9.07695C87.4597 8.84449 86.9173 8.72273 86.2864 8.72273C85.744 8.72273 85.2348 8.83342 84.7699 9.04374C84.2939 9.25406 83.8843 9.55293 83.5412 9.9293C83.1869 10.3057 82.8991 10.7595 82.6777 11.2687C82.4453 11.789 82.3124 12.3424 82.2682 12.9402H90.205V12.9513Z" fill="#282828"/>
<path id="Vector_11" d="M109.765 18.9066V12.4421C109.765 11.2576 109.477 10.3499 108.912 9.69684C108.348 9.05481 107.551 8.72273 106.543 8.72273C106.09 8.72273 105.647 8.81128 105.226 8.97732C104.806 9.14336 104.44 9.39796 104.13 9.71898C103.82 10.0511 103.566 10.4496 103.389 10.9255C103.201 11.4015 103.112 11.9439 103.112 12.5528V18.8956H102.06V12.3646C102.06 11.2244 101.773 10.3389 101.208 9.68577C100.643 9.04374 99.8686 8.71166 98.8834 8.71166C98.3964 8.71166 97.9425 8.81128 97.5219 9.01053C97.0902 9.20978 96.7249 9.48652 96.4149 9.84074C96.105 10.195 95.8615 10.6045 95.6733 11.0805C95.4962 11.5454 95.4076 12.0657 95.4076 12.6192V18.8956H94.3671V8.02535H95.4076V9.9625C95.5737 9.6747 95.7729 9.40903 95.9943 9.14336C96.2157 8.8777 96.4703 8.64524 96.747 8.43492C97.0348 8.2246 97.3669 8.06963 97.7433 7.94786C98.1196 7.8261 98.5513 7.77075 99.0384 7.77075C99.5033 7.77075 99.935 7.83717 100.334 7.95893C100.721 8.09177 101.075 8.25781 101.363 8.46813C101.651 8.67845 101.916 8.93304 102.138 9.20978C102.359 9.49759 102.547 9.79646 102.702 10.1064C102.868 9.80753 103.079 9.51973 103.322 9.23192C103.566 8.94411 103.843 8.70059 104.164 8.4792C104.485 8.25781 104.85 8.0807 105.248 7.95893C105.658 7.8261 106.112 7.77075 106.621 7.77075C107.263 7.77075 107.839 7.88145 108.359 8.10284C108.879 8.32422 109.322 8.63417 109.687 9.0216C110.052 9.40903 110.329 9.88502 110.517 10.4496C110.706 11.0141 110.805 11.634 110.805 12.3203V18.9177H109.765V18.9066Z" fill="#282828"/>
<path id="Vector_12" d="M119.284 19.2941C118.797 20.4342 118.266 21.2312 117.69 21.6961C117.115 22.1611 116.44 22.3935 115.654 22.3935C115.244 22.3935 114.868 22.3492 114.547 22.2717C114.215 22.1943 113.871 22.0725 113.506 21.9065L113.871 20.9766C114.159 21.1205 114.436 21.2201 114.702 21.2866C114.967 21.353 115.31 21.3862 115.731 21.3862C116.019 21.3862 116.274 21.3419 116.517 21.2534C116.761 21.1648 116.982 21.0209 117.203 20.8216C117.414 20.6113 117.624 20.3457 117.823 20.0246C118.023 19.6926 118.222 19.3051 118.421 18.8291L113.196 8.02536H114.414L118.941 17.7554L122.871 8.02536H124.022L119.284 19.2941Z" fill="#282828"/>
</g>
</g>
</g>
<defs>
<clipPath id="clip0_3_78">
<rect width="124" height="22.6038" fill="white"/>
</clipPath>
</defs>
</svg>
