<svg width="114" height="30" viewBox="0 0 114 30" fill="none" xmlns="http://www.w3.org/2000/svg">
<g id="Frame" clip-path="url(#clip0_2_53)">
<g id="Layer_2_1_">
<g id="Layer_1-2_1_">
<path id="Vector" d="M6.86928 0.0306208V1.53104C6.59369 1.50042 6.30789 1.48001 6.03231 1.49021C3.06208 1.49021 1.50042 3.48057 1.50042 7.24693V11.0745H4.24609V12.4831H1.49021V28.9877H0V7.08362C0 4.66457 0.632831 2.75588 1.81684 1.56166C2.84774 0.530761 4.2665 0 6.03231 0C6.33851 0 6.60389 0.0102069 6.86928 0.0306208Z" fill="white"/>
<path id="Vector_2" d="M78.767 0.0918579H77.2768V29.0592H78.767V0.0918579Z" fill="white"/>
<path id="Vector_3" d="M90.3519 3.88886C89.5455 2.88857 89.7089 1.41877 90.7091 0.612425C91.7094 -0.193924 93.1792 -0.0306124 93.9856 0.969668C93.9958 0.990082 94.0162 1.0105 94.0264 1.0207L100.64 9.48226C100.692 9.5435 100.743 9.61495 100.804 9.67619C99.1605 9.94158 97.7621 11.0337 97.0987 12.5648C97.0579 12.4933 97.0068 12.4219 96.9558 12.3606L90.3519 3.88886Z" fill="white"/>
<path id="Vector_4" d="M112.991 25.2928C113.797 26.2931 113.644 27.7629 112.644 28.5692C111.644 29.3756 110.174 29.2225 109.367 28.2222C109.347 28.2018 109.337 28.1814 109.316 28.161L102.713 19.6994C102.6 19.5565 102.478 19.434 102.335 19.3218C104.019 19.0666 105.448 17.9438 106.101 16.3719C106.173 16.5353 106.265 16.6782 106.377 16.8211L112.991 25.2928Z" fill="white"/>
<path id="Vector_5" d="M100.967 19.3626C100.845 19.4646 100.732 19.5769 100.64 19.6994L94.0366 28.161C93.2405 29.1714 91.7809 29.3552 90.7602 28.559C89.7497 27.7629 89.566 26.3033 90.3621 25.2826L96.966 16.821C97.0272 16.7394 97.0885 16.6475 97.1395 16.5557C97.854 18.0969 99.3034 19.1584 100.967 19.3626Z" fill="white"/>
<path id="Vector_6" d="M102.498 9.72723C102.58 9.65578 102.641 9.57412 102.713 9.49247L109.316 1.03091C110.113 0.0204214 111.572 -0.163304 112.583 0.632838C113.593 1.42898 113.777 2.88857 112.981 3.89906L106.377 12.3606C106.285 12.4831 106.193 12.6158 106.132 12.7587C105.519 11.1868 104.152 10.0436 102.498 9.72723Z" fill="white"/>
<path id="Vector_7" d="M104.754 14.5959C104.754 16.2903 103.376 17.6682 101.682 17.6682C99.9873 17.6682 98.6093 16.2903 98.6093 14.5959C98.6093 12.9016 99.9873 11.5237 101.682 11.5237C103.376 11.5237 104.754 12.9016 104.754 14.5959Z" fill="white"/>
<path id="Vector_8" d="M17.2906 10.9622C12.1667 10.9622 8.29825 14.8511 8.29825 20.0158V20.0771C8.29825 25.2009 12.1667 29.0694 17.2906 29.0694C22.4145 29.0694 26.2829 25.1805 26.2829 20.0158V19.9546C26.2829 14.8307 22.4145 10.9725 17.2906 10.9622ZM24.8539 19.9852V20.0464C24.8539 24.4048 21.6183 27.7016 17.3314 27.7016C13.0751 27.7016 9.74763 24.3436 9.74763 20.0464V19.9852C9.74763 15.6268 12.9832 12.33 17.2702 12.33C21.5162 12.33 24.8539 15.6983 24.8539 19.9852Z" fill="white"/>
<path id="Vector_9" d="M68.6825 12.922C67.3965 11.6359 65.5184 10.9827 63.0993 10.9827C61.0682 10.9827 59.2207 11.442 57.1079 12.4831L56.8017 12.6362L57.3528 13.8814L57.6795 13.7283C59.6392 12.7791 61.3029 12.3606 63.0585 12.3606C66.9474 12.3606 69.0092 14.2897 69.0092 17.9438V18.8522C67.0903 18.2602 65.0999 17.9642 63.0891 17.954C58.3633 17.954 55.3012 20.1791 55.3012 23.6087V23.6801C55.3012 27.3648 58.7206 29.0388 61.8949 29.0388C65.4163 29.0388 67.8456 27.3852 69.0092 25.7521V29.0796H70.4177V17.9132C70.4177 15.7901 69.8155 14.0652 68.6825 12.922ZM69.0194 20.2914V22.1797C69.0194 24.8131 66.3145 27.6608 61.9358 27.6608C59.5473 27.6608 56.7506 26.6095 56.7506 23.6495V23.578C56.7506 20.4445 60.0475 19.3319 63.13 19.3319C65.3245 19.3319 67.1923 19.6382 69.0194 20.2914Z" fill="white"/>
<path id="Vector_10" d="M41.9505 12.3606C43.5122 12.3402 45.033 12.8301 46.2987 13.7488L46.3191 13.7692H48.4626L48.2993 13.6161C47.1357 12.4933 45.2066 10.9929 41.9812 10.9929C37.1022 10.9929 33.1317 15.0348 33.1317 20.0056V20.0669C33.1317 25.0377 37.0818 29.0796 41.9403 29.0796C44.4002 29.0796 46.4722 28.212 48.2891 26.4156L48.4422 26.2625H46.3191L46.2987 26.2829C45.0535 27.2219 43.5326 27.7221 41.9812 27.7017C37.8984 27.7017 34.5811 24.2619 34.5811 20.026V19.9648C34.5811 15.6983 37.8167 12.3606 41.9505 12.3606Z" fill="white"/>
</g>
</g>
</g>
<defs>
<clipPath id="clip0_2_53">
<rect width="113.511" height="29.1" fill="white"/>
</clipPath>
</defs>
</svg>
